<?xml version="1.0" encoding="UTF-8"?>
<svg width="100px" height="100px" viewBox="0 0 100 100" version="1.1" xmlns="http://www.w3.org/2000/svg" xmlns:xlink="http://www.w3.org/1999/xlink">
    <!-- Generator: Sketch 52.5 (67469) - http://www.bohemiancoding.com/sketch -->
    <title>Logo/Full color</title>
    <desc>Created with Sketch.</desc>
    <defs>
        <rect id="path-1" x="0" y="0" width="100" height="100"></rect>
        <filter x="-6.5%" y="-5.5%" width="113.0%" height="113.0%" filterUnits="objectBoundingBox" id="filter-2">
            <feOffset dx="0" dy="1" in="SourceAlpha" result="shadowOffsetOuter1"></feOffset>
            <feGaussianBlur stdDeviation="2" in="shadowOffsetOuter1" result="shadowBlurOuter1"></feGaussianBlur>
            <feColorMatrix values="0 0 0 0 0   0 0 0 0 0   0 0 0 0 0  0 0 0 0.1 0" type="matrix" in="shadowBlurOuter1"></feColorMatrix>
        </filter>
    </defs>
    <g id="Logo/Full-color" stroke="none" stroke-width="1" fill="none" fill-rule="evenodd">
        <g id="bg" fill-rule="nonzero">
            <use fill="black" fill-opacity="1" filter="url(#filter-2)" xlink:href="#path-1"></use>
            <use fill="#FFFFFF" xlink:href="#path-1"></use>
        </g>
        <g id="logo" transform="translate(17.000000, 14.000000)">
            <polygon id="Fill-4" fill="#2990EA" points="65.8001 10.5996 36.8001 40.0996 0.0001 40.0996"></polygon>
            <path d="M36.4002,45.4004 C32.3002,45.4004 28.6002,44.0004 25.7002,41.5994 L10.2002,41.5994 C15.0002,51.0994 24.9002,57.5994 36.4002,57.5994 C48.2002,57.5994 58.4002,50.7004 63.0002,40.7994 L48.0002,40.7994 C45.0002,43.5994 40.9002,45.4004 36.4002,45.4004" id="Fill-6" fill="#0A2143"></path>
            <path d="M59.9002,12 C54.7002,4.7 46.1002,0 36.5002,0 C20.6002,0 7.7002,12.9 7.7002,28.8 C7.7002,30.8 7.9002,32.8 8.3002,34.7 L37.3002,21.8 L21.4002,21.8 C24.0002,16.2 29.8002,12.2 36.4002,12.2 C41.0002,12.2 45.1002,14.1 48.1002,17 L59.9002,12 Z" id="Fill-1" fill="#0A2143"></path>
            <polygon id="Fill-8" fill="#0A2143" points="7.6898 68.3438 5.0618 68.3438 5.0618 70.3128 8.1338 70.3128 8.1338 71.1998 3.9498 71.1998 3.9498 64.8018 8.1028 64.8018 8.1028 65.6978 5.0618 65.6978 5.0618 67.4648 7.6898 67.4648"></polygon>
            <path d="M13.7191,64.8018 L13.7191,69.0768 C13.7191,69.7568 13.5021,70.2958 13.0661,70.6928 C12.6321,71.0898 12.0521,71.2878 11.3281,71.2878 C10.5961,71.2878 10.0141,71.0928 9.5841,70.7008 C9.1531,70.3108 8.9381,69.7678 8.9381,69.0728 L8.9381,64.8018 L10.0451,64.8018 L10.0451,69.0818 C10.0451,69.5098 10.1541,69.8358 10.3701,70.0618 C10.5871,70.2868 10.9061,70.4008 11.3281,70.4008 C12.1841,70.4008 12.6121,69.9488 12.6121,69.0468 L12.6121,64.8018 L13.7191,64.8018 Z" id="Fill-10" fill="#0A2143"></path>
            <path d="M16.0174,67.8428 L17.1604,67.8428 C17.5354,67.8428 17.8284,67.7478 18.0384,67.5598 C18.2494,67.3698 18.3554,67.1118 18.3554,66.7828 C18.3554,66.4408 18.2574,66.1758 18.0624,65.9888 C17.8684,65.8008 17.5774,65.7038 17.1904,65.6978 L16.0174,65.6978 L16.0174,67.8428 Z M17.2564,68.7388 L16.0174,68.7388 L16.0174,71.1998 L14.9054,71.1998 L14.9054,64.8018 L17.1554,64.8018 C17.8934,64.8018 18.4634,64.9668 18.8654,65.2988 C19.2664,65.6298 19.4674,66.1098 19.4674,66.7368 C19.4674,67.1648 19.3634,67.5238 19.1574,67.8128 C18.9504,68.1008 18.6634,68.3228 18.2934,68.4788 L19.7304,71.1428 L19.7304,71.1998 L18.5394,71.1998 L17.2564,68.7388 Z" id="Fill-12" fill="#0A2143"></path>
            <path d="M24.5164,67.834 C24.5164,67.125 24.3824,66.581 24.1144,66.203 C23.8464,65.825 23.4664,65.637 22.9744,65.637 C22.4934,65.637 22.1174,65.825 21.8474,66.201 C21.5754,66.578 21.4374,67.11 21.4314,67.799 L21.4314,68.168 C21.4314,68.871 21.5684,69.414 21.8424,69.798 C22.1164,70.182 22.4964,70.374 22.9824,70.374 C23.4744,70.374 23.8534,70.187 24.1184,69.812 C24.3834,69.437 24.5164,68.889 24.5164,68.168 L24.5164,67.834 Z M25.6284,68.168 C25.6284,68.795 25.5194,69.345 25.3034,69.818 C25.0864,70.291 24.7764,70.654 24.3734,70.908 C23.9704,71.161 23.5074,71.288 22.9824,71.288 C22.4644,71.288 22.0014,71.161 21.5964,70.908 C21.1904,70.654 20.8764,70.293 20.6554,69.824 C20.4344,69.355 20.3224,68.815 20.3194,68.203 L20.3194,67.843 C20.3194,67.219 20.4304,66.668 20.6514,66.19 C20.8724,65.713 21.1844,65.348 21.5874,65.094 C21.9904,64.841 22.4524,64.714 22.9744,64.714 C23.4954,64.714 23.9574,64.839 24.3604,65.09 C24.7634,65.34 25.0744,65.7 25.2944,66.171 C25.5144,66.641 25.6254,67.188 25.6284,67.812 L25.6284,68.168 Z" id="Fill-14" fill="#0A2143"></path>
            <path d="M31.618,69.1172 C31.554,69.8002 31.302,70.3322 30.862,70.7152 C30.423,71.0962 29.838,71.2882 29.109,71.2882 C28.599,71.2882 28.15,71.1672 27.762,70.9262 C27.373,70.6832 27.074,70.3402 26.863,69.8942 C26.652,69.4492 26.542,68.9322 26.534,68.3442 L26.534,67.7462 C26.534,67.1422 26.64,66.6102 26.854,66.1502 C27.068,65.6902 27.375,65.3362 27.775,65.0872 C28.175,64.8382 28.637,64.7142 29.161,64.7142 C29.868,64.7142 30.436,64.9052 30.867,65.2872 C31.297,65.6702 31.548,66.2112 31.618,66.9112 L30.511,66.9112 C30.458,66.4512 30.324,66.1192 30.109,65.9162 C29.893,65.7122 29.577,65.6102 29.161,65.6102 C28.678,65.6102 28.307,65.7872 28.047,66.1392 C27.788,66.4932 27.656,67.0122 27.65,67.6952 L27.65,68.2632 C27.65,68.9542 27.773,69.4822 28.021,69.8462 C28.268,70.2102 28.631,70.3912 29.109,70.3912 C29.545,70.3912 29.873,70.2932 30.093,70.0962 C30.313,69.9002 30.452,69.5742 30.511,69.1172 L31.618,69.1172 Z" id="Fill-16" fill="#0A2143"></path>
            <path d="M36.6058,67.834 C36.6058,67.125 36.4718,66.581 36.2038,66.203 C35.9358,65.825 35.5558,65.637 35.0638,65.637 C34.5828,65.637 34.2068,65.825 33.9368,66.201 C33.6648,66.578 33.5268,67.11 33.5208,67.799 L33.5208,68.168 C33.5208,68.871 33.6578,69.414 33.9318,69.798 C34.2058,70.182 34.5858,70.374 35.0718,70.374 C35.5638,70.374 35.9428,70.187 36.2078,69.812 C36.4728,69.437 36.6058,68.889 36.6058,68.168 L36.6058,67.834 Z M37.7178,68.168 C37.7178,68.795 37.6088,69.345 37.3928,69.818 C37.1758,70.291 36.8658,70.654 36.4628,70.908 C36.0598,71.161 35.5968,71.288 35.0718,71.288 C34.5538,71.288 34.0908,71.161 33.6858,70.908 C33.2798,70.654 32.9658,70.293 32.7448,69.824 C32.5238,69.355 32.4118,68.815 32.4088,68.203 L32.4088,67.843 C32.4088,67.219 32.5198,66.668 32.7408,66.19 C32.9618,65.713 33.2738,65.348 33.6768,65.094 C34.0798,64.841 34.5418,64.714 35.0638,64.714 C35.5848,64.714 36.0468,64.839 36.4498,65.09 C36.8528,65.34 37.1638,65.7 37.3838,66.171 C37.6038,66.641 37.7148,67.188 37.7178,67.812 L37.7178,68.168 Z" id="Fill-19" fill="#0A2143"></path>
            <polygon id="Fill-21" fill="#0A2143" points="43.9007 71.2002 42.7887 71.2002 39.9367 66.6602 39.9367 71.2002 38.8247 71.2002 38.8247 64.8022 39.9367 64.8022 42.7977 69.3582 42.7977 64.8022 43.9007 64.8022"></polygon>
            <polygon id="Fill-23" fill="#0A2143" points="49.7103 65.6983 47.7153 65.6983 47.7153 71.2003 46.6123 71.2003 46.6123 65.6983 44.6343 65.6983 44.6343 64.8023 49.7103 64.8023"></polygon>
            <path d="M51.6615,67.8428 L52.8045,67.8428 C53.1795,67.8428 53.4725,67.7478 53.6825,67.5598 C53.8935,67.3698 53.9995,67.1118 53.9995,66.7828 C53.9995,66.4408 53.9015,66.1758 53.7065,65.9888 C53.5125,65.8008 53.2215,65.7038 52.8345,65.6978 L51.6615,65.6978 L51.6615,67.8428 Z M52.9005,68.7388 L51.6615,68.7388 L51.6615,71.1998 L50.5495,71.1998 L50.5495,64.8018 L52.7995,64.8018 C53.5375,64.8018 54.1075,64.9668 54.5095,65.2988 C54.9105,65.6298 55.1115,66.1098 55.1115,66.7368 C55.1115,67.1648 55.0075,67.5238 54.8015,67.8128 C54.5945,68.1008 54.3075,68.3228 53.9375,68.4788 L55.3745,71.1428 L55.3745,71.1998 L54.1835,71.1998 L52.9005,68.7388 Z" id="Fill-25" fill="#0A2143"></path>
            <path d="M60.1605,67.834 C60.1605,67.125 60.0265,66.581 59.7585,66.203 C59.4905,65.825 59.1105,65.637 58.6185,65.637 C58.1375,65.637 57.7615,65.825 57.4915,66.201 C57.2195,66.578 57.0815,67.11 57.0755,67.799 L57.0755,68.168 C57.0755,68.871 57.2125,69.414 57.4865,69.798 C57.7605,70.182 58.1405,70.374 58.6265,70.374 C59.1185,70.374 59.4975,70.187 59.7625,69.812 C60.0275,69.437 60.1605,68.889 60.1605,68.168 L60.1605,67.834 Z M61.2725,68.168 C61.2725,68.795 61.1635,69.345 60.9475,69.818 C60.7305,70.291 60.4205,70.654 60.0175,70.908 C59.6145,71.161 59.1515,71.288 58.6265,71.288 C58.1085,71.288 57.6455,71.161 57.2405,70.908 C56.8345,70.654 56.5205,70.293 56.2995,69.824 C56.0785,69.355 55.9665,68.815 55.9635,68.203 L55.9635,67.843 C55.9635,67.219 56.0745,66.668 56.2955,66.19 C56.5165,65.713 56.8285,65.348 57.2315,65.094 C57.6345,64.841 58.0965,64.714 58.6185,64.714 C59.1395,64.714 59.6015,64.839 60.0045,65.09 C60.4075,65.34 60.7185,65.7 60.9385,66.171 C61.1585,66.641 61.2695,67.188 61.2725,67.812 L61.2725,68.168 Z" id="Fill-27" fill="#0A2143"></path>
            <polygon id="Fill-29" fill="#0A2143" points="63.4915 70.3125 66.3965 70.3125 66.3965 71.2005 62.3795 71.2005 62.3795 64.8015 63.4915 64.8015"></polygon>
        </g>
    </g>
</svg>